# xmcd CD database file
#
# Track frame offsets:
#	150
#	18542
#	29620
#	50545
#	64132
#	83725
#	100850
#	116675
#	138605
#	161157
#
# Disc length: 2429 seconds
#
# Revision: 2
# Processed by: cddbd v1.5.2PL0 Copyright (c) Steve Scherf et al.
# Submitted via: CDex 1.70beta3
#
DISCID=8a097b0a
DTITLE=SABBRABELLS - Sailing On The Revenge
DYEAR=1986
DGENRE=J-Metal
TTITLE0=Devil's Rondo
TTITLE1=Hawk Emblem
TTITLE2=Hakai
TTITLE3=Dead Point
TTITLE4=Running My Way
TTITLE5=Moon Struck
TTITLE6=Diamond City
TTITLE7=Kagami Bari No Heya
TTITLE8=Your Song
TTITLE9=Sailing On The Revenge
EXTD=YEAR: 1986
EXTT0=
EXTT1=
EXTT2=
EXTT3=
EXTT4=
EXTT5=
EXTT6=
EXTT7=
EXTT8=
EXTT9=
PLAYORDER=
